<svg width="664" height="95" viewBox="0 0 664 95" fill="none" xmlns="http://www.w3.org/2000/svg">
<g clipPath="url(#clip0_117_381)">
<path d="M104.413 0V95H0.544605C0.366495 94.2569 0.18496 93.4933 0 92.7331C0 91.8263 0 90.9229 0 90.0162C0.113031 89.3957 0.328818 88.7753 0.328818 88.1549C0.345944 58.7699 0.342519 29.3884 0.342519 0.00340893H104.413V0ZM17.5233 42.223C19.0543 43.0104 20.582 43.3547 21.3834 44.3024C23.0173 46.2319 24.2983 48.4647 25.6649 50.6089C30.3848 58.0234 35.0157 65.4957 39.8041 72.8658C42.2223 76.585 47.6718 76.4486 50.1345 72.6954C52.5013 69.0921 54.755 65.4139 57.0568 61.7664C61.5438 54.6622 66.0239 47.5511 70.5178 40.4503C72.0968 37.955 74.0423 36.0119 77.3065 35.9846C78.3991 35.9744 78.8889 34.8052 78.1148 33.9359C77.4229 33.1586 76.5838 32.3098 75.6384 31.9894C70.5554 30.2645 65.2943 31.9826 62.3487 36.363C56.728 44.7115 51.3675 53.2338 45.9146 61.6948C44.9248 63.2322 44.8117 63.2697 43.791 61.6948C39.7973 55.5178 35.8446 49.3135 31.8234 43.1536C29.3093 39.3015 25.1717 37.6959 20.7601 38.7288C18.52 39.2538 17.3863 40.631 17.5198 42.2264L17.5233 42.223ZM86.8148 42.7616C87.0614 40.4572 86.6093 39.8095 84.5953 39.0424C80.0775 37.3175 75.4055 39.0834 72.8983 42.9286C70.3636 46.8182 67.8256 50.7078 65.3046 54.6076C61.7938 60.038 58.307 65.4855 54.7824 70.9057C53.9227 72.2284 54.1728 73.2681 55.399 74.151C58.4132 76.3259 62.746 76.0021 65.0477 72.3613C70.6308 63.539 76.2412 54.7337 81.8003 45.8978C82.9923 44.0024 84.4377 42.6389 86.8182 42.765L86.8148 42.7616ZM52.0012 19.7036C49.0247 19.4991 47.0278 20.924 45.4933 23.3409C45.1371 23.9034 44.2089 24.3534 43.5102 24.4079C41.318 24.5818 39.5232 25.5124 38.0504 27.0021C36.6427 28.427 37.1119 29.8281 39.0437 30.2201C41.4448 30.7076 43.2019 32.0712 44.5103 34.0484C46.7127 37.3687 48.8809 40.7094 51.0524 44.0468C51.669 44.9979 52.2136 45.2706 52.9534 44.1183C54.8647 41.1389 56.8513 38.2073 58.7694 35.2313C60.2799 32.8893 61.9788 30.8338 64.9279 30.2236C67.0138 29.7906 67.4454 28.4986 65.9794 26.9408C64.5168 25.3863 62.657 24.6159 60.4922 24.4079C59.8003 24.3397 58.9132 23.8523 58.5467 23.283C56.9917 20.8763 54.964 19.4923 52.0012 19.707V19.7036ZM32.8304 31.5905C32.1728 31.5905 31.6487 31.5326 31.1452 31.6008C29.1312 31.8769 27.1823 32.2587 26.3054 34.4711C25.9252 35.4324 26.1034 36.0085 27.2028 35.9949C30.2787 35.9506 32.3338 37.7914 33.8237 40.0276C37.2523 45.1785 40.4138 50.5033 43.6848 55.7564C44.4589 57.0007 45.0241 57.0109 45.8598 55.7564C47.0895 53.919 48.3328 52.0884 49.4974 50.2101C50.0386 49.3374 50.1858 48.5193 49.4631 47.4523C47.3498 44.3502 45.5653 41.0264 43.4211 37.9482C40.8522 34.2631 37.7182 31.2906 32.8338 31.5871L32.8304 31.5905Z" fill="#007DC3"/>
<path d="M177.812 35.0096C172.934 50.3328 168.208 65.1786 163.46 80.1029H152.102C145.711 58.7051 139.302 37.2595 132.839 15.6299C137.23 15.6299 141.543 15.5924 145.855 15.6878C146.259 15.6981 146.858 16.4719 147.006 16.99C148.15 21.016 149.194 25.0726 150.29 29.1122C152.38 36.8198 154.479 44.524 156.576 52.2315C157.124 54.2462 157.668 56.2643 158.299 58.596C160.717 51.0282 163.039 43.7672 165.354 36.5062C167.464 29.8962 169.591 23.2897 171.65 16.6628C171.968 15.6401 172.4 15.2379 173.52 15.2583C177.11 15.3299 180.703 15.2856 184.361 15.2856C188.827 29.5792 193.28 43.8285 197.733 58.0779C197.846 58.0779 197.959 58.0847 198.068 58.0881C201.908 43.9853 205.744 29.8826 209.604 15.7049H222.952C222.445 17.6752 222.021 19.5808 221.466 21.4489C218.661 30.8951 215.801 40.3276 212.995 49.7771C210.221 59.121 207.423 68.458 204.785 77.8394C204.265 79.6905 203.525 80.3518 201.6 80.2086C199.161 80.0279 196.691 80.0859 194.246 80.1984C192.913 80.2597 192.321 79.9052 191.893 78.5621C188.283 67.282 184.563 56.0393 180.891 44.7762C179.884 41.6877 178.935 38.5822 177.812 35.013V35.0096Z" fill="white"/>
<path d="M589.15 37.1506V79.7349H576.583V15.7425C576.966 15.705 577.398 15.6334 577.826 15.63C581.193 15.6198 584.556 15.6777 587.92 15.5959C589.163 15.5653 589.876 15.8925 590.585 17.0072C595.068 24.0569 599.668 31.0316 604.231 38.0369C605.529 40.0277 606.817 42.0288 608.231 44.2105C609.776 41.9197 611.307 39.7243 612.763 37.4813C615.743 32.8894 618.682 28.2703 621.641 23.6649C623.138 21.3366 624.607 18.9912 626.166 16.7038C626.491 16.2266 627.155 15.6846 627.676 15.6709C631.773 15.5857 635.873 15.6232 640.075 15.6232V79.7247H627.173V37.0313C624.234 41.4015 621.6 45.3286 618.952 49.2523C615.825 53.8884 612.698 58.5246 609.564 63.1539C608.57 64.6231 607.601 64.6368 606.639 63.2084C601.162 55.0815 595.688 46.9513 590.215 38.8176C589.941 38.4085 589.687 37.9892 589.146 37.1404L589.15 37.1506Z" fill="white"/>
<path d="M295.213 15.6266C298.858 15.6266 302.393 15.5209 305.914 15.7118C306.671 15.7527 307.5 16.7652 308.075 17.5015C312.935 23.7194 317.727 29.9952 322.577 36.2199C327.811 42.9355 333.082 49.6204 338.343 56.3155C338.432 56.4314 338.593 56.4894 338.864 56.6667V15.7493H351.472V79.8201C348.191 79.8201 344.903 79.8712 341.618 79.769C341.077 79.7519 340.433 79.1554 340.046 78.6645C335.778 73.2477 331.544 67.807 327.318 62.3562C323.296 57.1746 319.31 51.9692 315.278 46.791C312.764 43.5627 310.202 40.372 307.482 36.9324V79.6906H295.213V15.6266Z" fill="white"/>
<path d="M368.088 79.8235V15.6265C368.622 15.6265 369.163 15.6265 369.705 15.6265C378.261 15.6265 386.824 15.3743 395.37 15.6981C403.497 16.0049 410.807 18.7048 416.845 24.4488C422.017 29.3713 425.086 35.3608 426.158 42.2605C427.563 51.2907 425.754 59.7619 420.233 67.1832C415.852 73.0704 409.796 76.7486 402.682 78.3815C398.726 79.2883 394.589 79.6462 390.516 79.7621C383.111 79.9735 375.692 79.8235 368.091 79.8235H368.088ZM380.754 67.5956C386.163 67.5956 391.389 67.7899 396.592 67.5343C400.603 67.3366 404.107 65.4173 406.967 62.6902C412.345 57.5632 414.013 51.1953 412.889 43.9513C411.615 35.7665 406.107 29.5043 397.932 27.9396C394.037 27.193 389.958 27.3737 385.96 27.1896C384.224 27.1112 382.477 27.176 380.754 27.176V67.599V67.5956Z" fill="white"/>
<path d="M479.684 53.3905H451.227V79.7416H438.671V15.7492H451.145V41.3366H479.602V15.7083H492.158V79.7006H479.684V53.3905Z" fill="white"/>
<path d="M540.686 14.9447C550.304 36.571 559.874 58.0813 569.544 79.82C564.902 79.82 560.576 79.8371 556.254 79.7894C555.928 79.7859 555.449 79.3939 555.312 79.0667C553.555 74.9044 551.829 70.725 550.133 66.5389C549.588 65.1957 548.945 64.456 547.205 64.4799C538.364 64.606 529.524 64.5378 520.584 64.5378C518.433 69.5864 516.275 74.6419 514.097 79.7587H500.67C501.376 78.0167 501.978 76.3941 502.684 74.8157C505.475 68.5638 508.329 62.3391 511.103 56.0803C514.706 47.9602 518.245 39.8129 521.841 31.6894C524.167 26.4396 526.575 21.224 528.897 15.9708C529.243 15.1936 529.65 14.9072 530.514 14.9209C533.877 14.972 537.241 14.9413 540.686 14.9413V14.9447ZM544.399 53.2543C541.2 45.8876 538.056 38.647 534.853 31.2701C531.658 38.6266 528.51 45.8705 525.3 53.2543H544.399Z" fill="white"/>
<path d="M227.576 15.6265C232.447 15.6265 237.064 15.589 241.681 15.6777C242.233 15.6879 242.969 16.264 243.288 16.7787C247.925 24.3091 252.505 31.8769 257.108 39.4311C257.31 39.7617 257.598 40.0379 257.896 40.3992C262.832 32.4598 267.713 24.592 272.635 16.7515C272.94 16.2674 273.587 15.6845 274.087 15.6743C278.646 15.5924 283.208 15.6265 288.106 15.6265C286.781 17.7673 285.606 19.7309 284.366 21.6535C277.831 31.7917 271.268 41.9094 264.767 52.068C264.38 52.6713 264.312 53.5577 264.308 54.311C264.277 62.7379 264.288 71.1682 264.288 79.711H251.279V77.9213C251.279 70.4489 251.227 62.9765 251.32 55.5076C251.337 53.9701 250.953 52.6748 250.172 51.4475C245.168 43.6138 240.143 35.7972 235.136 27.9634C232.752 24.2341 230.395 20.4877 228.039 16.7412C227.871 16.4754 227.792 16.1515 227.58 15.6265H227.576Z" fill="white"/>
<path d="M17.5233 42.2229C17.3897 40.6309 18.5268 39.2503 20.7635 38.7253C25.1717 37.6924 29.3127 39.298 31.8268 43.1501C35.848 49.3101 39.8007 55.5143 43.7944 61.6913C44.8151 63.2696 44.9247 63.2321 45.9181 61.6913C51.371 53.2303 56.7314 44.708 62.3521 36.3595C65.2978 31.9825 70.5589 30.261 75.6418 31.9859C76.5872 32.3063 77.4264 33.1551 78.1182 33.9324C78.8923 34.8051 78.406 35.9743 77.3099 35.9811C74.0457 36.0084 72.1002 37.9515 70.5212 40.4468C66.0239 47.5476 61.5472 54.6553 57.0602 61.7629C54.7585 65.4104 52.5047 69.0852 50.1379 72.6919C47.6752 76.4417 42.2257 76.5815 39.8075 72.8623C35.0191 65.4922 30.3883 58.0233 25.6683 50.6054C24.3017 48.4612 23.0241 46.2284 21.3869 44.2989C20.5854 43.3512 19.0577 43.0104 17.5267 42.2195L17.5233 42.2229Z" fill="white"/>
<path d="M86.8182 42.7616C84.4377 42.6389 82.9923 43.999 81.8003 45.8944C76.2413 54.7303 70.6308 63.5356 65.0478 72.3579C62.746 75.9952 58.4132 76.3191 55.399 74.1476C54.1728 73.2647 53.9227 72.2249 54.7825 70.9023C58.307 65.4821 61.7938 60.0346 65.3046 54.6042C67.8256 50.7044 70.3636 46.8148 72.8983 42.9252C75.4055 39.0799 80.0775 37.3141 84.5953 39.039C86.6127 39.8095 87.0614 40.4537 86.8148 42.7582L86.8182 42.7616Z" fill="white"/>
<path d="M52.0011 19.7002C54.9639 19.4888 56.9916 20.8728 58.5466 23.2795C58.9131 23.8488 59.8002 24.3397 60.4921 24.4045C62.6569 24.6124 64.5133 25.3828 65.9793 26.9373C67.4453 28.4952 67.0171 29.7872 64.9278 30.2201C61.9821 30.8303 60.2798 32.8893 58.7693 35.2278C56.8512 38.2038 54.8646 41.1355 52.9533 44.1149C52.2135 45.2671 51.6723 44.9944 51.0523 44.0433C48.8807 40.7026 46.7126 37.3652 44.5102 34.0449C43.2018 32.0712 41.4447 30.7042 39.0436 30.2167C37.1118 29.8247 36.6426 28.4236 38.0503 26.9987C39.5231 25.509 41.3179 24.5783 43.5101 24.4045C44.2122 24.3499 45.137 23.8966 45.4932 23.3375C47.0311 20.924 49.0246 19.4956 52.0011 19.6968V19.7002Z" fill="white"/>
<path d="M32.8337 31.5905C37.7181 31.2939 40.8521 34.2665 43.421 37.9516C45.5652 41.0298 47.3531 44.3535 49.463 47.4556C50.1892 48.5192 50.0385 49.3408 49.4973 50.2135C48.3327 52.0918 47.0894 53.9224 45.8597 55.7598C45.024 57.0109 44.4623 57.0041 43.6847 55.7598C40.4137 50.5066 37.2557 45.1785 33.8236 40.031C32.3337 37.7947 30.282 35.9539 27.2027 35.9982C26.1033 36.0153 25.9251 35.4358 26.3053 34.4744C27.1822 32.2621 29.1311 31.8803 31.1451 31.6041C31.6486 31.5359 32.1693 31.5939 32.8303 31.5939L32.8337 31.5905Z" fill="white"/>
<path d="M656.149 24.2033H654.752V27.3054H652.998V18.8274H656.163C657.17 18.8274 657.944 19.049 658.492 19.4955C659.04 19.9421 659.311 20.5728 659.311 21.3875C659.311 21.967 659.184 22.4477 658.934 22.8329C658.684 23.2181 658.3 23.5283 657.79 23.7567L659.633 27.2202V27.302H657.749L656.153 24.1999L656.149 24.2033ZM654.752 22.7886H656.167C656.608 22.7886 656.948 22.6761 657.191 22.4545C657.434 22.2329 657.554 21.9227 657.554 21.5307C657.554 21.1386 657.441 20.8148 657.211 20.5864C656.982 20.358 656.632 20.2421 656.16 20.2421H654.749V22.7852L654.752 22.7886Z" fill="white"/>
<path d="M655.872 16.5503C659.599 16.5503 662.63 19.5672 662.63 23.2762C662.63 26.9851 659.599 30.002 655.872 30.002C652.145 30.002 649.114 26.9851 649.114 23.2762C649.114 19.5672 652.145 16.5503 655.872 16.5503ZM655.872 15.1868C651.385 15.1868 647.744 18.807 647.744 23.2762C647.744 27.7453 651.382 31.3655 655.872 31.3655C660.363 31.3655 664 27.7453 664 23.2762C664 18.807 660.363 15.1868 655.872 15.1868Z" fill="white"/>
</g>
<defs>
<clipPath id="clip0_117_381">
<rect width="664" height="95" fill="white"/>
</clipPath>
</defs>
</svg>
