<svg width="148" height="131" viewBox="0 0 148 131" fill="none" xmlns="http://www.w3.org/2000/svg">
<path d="M75.3997 124.7C89.6997 124.7 92.1999 113.4 92.5999 108.2V65.6C85.5999 94.4 66.7997 130.5 37.3997 130.5C18.0997 130.5 0.299975 115 0.699975 91.4L92.3997 37.1V32.3C92.3997 10.4 76.9999 4.49999 64.5999 4.79999C46.4999 5.19999 22.7 24.8 7.19998 52.5L4.69998 52.1L16.9998 9.5L64.7 0.5C85.6 0.5 126.9 9.49999 127.6 31.8V125H144.4L147.4 128.2H78.2996L75.3997 124.7ZM41.3997 73.8C36.2997 88.6 41 113.6 55.2 113.6C73.7 113.3 90.6 70.7 92.7 45.2V41L41.3997 73.8Z" fill="black"/>
</svg>
