<svg width="152" height="179" viewBox="0 0 152 179" fill="none" xmlns="http://www.w3.org/2000/svg">
<path d="M79.2004 172.7C91.5004 172.7 95.3001 164.2 96.4001 158.4V113.5C89.9001 142.3 71.3002 178.4 37.0002 178.4C5.80022 178.4 -5.59958 149.1 2.70042 114.8L96.4001 54.1V3.5H79.9001L76.9001 0.299988H146L149 3.5C131.5 3.5 131.5 21.6 131.5 21.6V172.7H148.3L151.3 175.9H82.2004L79.2004 172.7ZM96.4001 59.2L42.8 96.3C34.5 136.9 41.8004 161.8 58.2004 161.8C81.2004 161.5 96.6003 112.1 96.6003 88.1V59.3H96.4001V59.2Z" fill="black"/>
</svg>
