<svg width="171" height="128" viewBox="0 0 171 128" fill="none" xmlns="http://www.w3.org/2000/svg">
<path d="M2.7998 124.7C15.0998 124.7 18.9 116.2 20 110.4V5.89999H3.5L0.5 2.70001H69.6001L72.6001 5.89999C55.1001 5.89999 55.1001 24 55.1001 24V42.5C67.9001 19.5 81.6001 0.200012 107.6 0.200012C133.4 0.200012 148.9 19.2 150.5 40.8V124.8H167.3L170.3 128H101.2L98.2002 124.8C111.2 124.8 114.7 115.2 115.4 109.3V44.2C115.4 32.5 113.4 10.3 96.3999 10.3C81.8999 10.3 67.2998 26.4 55.2998 50.9V124.6H72.1001L75.1001 127.8H6L2.7998 124.7Z" fill="black"/>
</svg>
